<?xml version="1.0" standalone="no"?><svg xmlns="http://www.w3.org/2000/svg" viewBox="0 0 1440 320"><path fill="#00cba9" fill-opacity="1" d="M0,96L26.7,133.3C53.3,171,107,245,160,250.7C213.3,256,267,192,320,160C373.3,128,427,128,480,149.3C533.3,171,587,213,640,192C693.3,171,747,85,800,80C853.3,75,907,149,960,149.3C1013.3,149,1067,75,1120,80C1173.3,85,1227,171,1280,176C1333.3,181,1387,107,1413,69.3L1440,32L1440,0L1413.3,0C1386.7,0,1333,0,1280,0C1226.7,0,1173,0,1120,0C1066.7,0,1013,0,960,0C906.7,0,853,0,800,0C746.7,0,693,0,640,0C586.7,0,533,0,480,0C426.7,0,373,0,320,0C266.7,0,213,0,160,0C106.7,0,53,0,27,0L0,0Z"></path></svg>